<svg width="19" height="24" viewBox="0 0 19 24" fill="none" xmlns="http://www.w3.org/2000/svg">
<path fill-rule="evenodd" clip-rule="evenodd" d="M10.0328 0.426764C9.82441 0.723422 9.60789 0.81362 9.32178 0.723218C8.78324 0.552594 7.54391 1.07729 7.26719 1.59303C7.10352 1.89824 7.13536 2.22951 7.39575 2.93074C7.72982 3.82968 7.72798 3.87304 7.34698 4.15097C6.99802 4.40568 6.92047 4.39408 6.68028 4.05202C6.36723 3.60611 5.03321 3.51286 4.63588 3.90929C4.5012 4.04367 4.391 4.45272 4.391 4.8184C4.391 5.58275 4.10979 5.78737 2.75842 6.00585C1.57909 6.19642 1.32992 6.41204 1.32992 7.24155C1.32992 8.16104 1.88724 8.53059 3.0729 8.39743C3.93898 8.2999 3.98285 8.32006 3.98285 8.81381C3.98285 9.7443 3.80123 9.9752 3.23799 9.76161C2.95964 9.65594 2.32252 9.56961 1.82234 9.56961C1.05034 9.56961 0.877899 9.64657 0.680561 10.0786C0.372616 10.753 0.740354 11.6057 1.3389 11.6057C1.57317 11.6057 1.93193 11.6949 2.136 11.8038C2.45864 11.9763 2.4817 12.1212 2.31232 12.9137C2.06825 14.0557 2.50435 15.9086 3.38288 17.4617C3.97408 18.5066 3.98693 18.5878 3.85612 20.4431C3.72225 22.345 3.72327 22.3513 4.26284 22.704C5.17912 23.303 6.83986 22.691 6.83986 21.7546C6.83986 21.3667 7.14087 21.2447 7.33269 21.5546C7.39269 21.6511 8.47509 22.0317 9.73809 22.4C11.0013 22.7681 12.4959 23.2839 13.0596 23.5457C14.3487 24.1447 15.1656 24.1506 16.029 23.5677C18.4936 21.9034 18.7379 14.4892 16.4072 12.0899C15.6768 11.3382 15.6878 10.7218 16.4333 10.62C17.6381 10.4553 18.0293 9.31306 17.1735 8.45913C16.7316 8.01831 16.6112 7.99531 15.7329 8.18222C14.7187 8.39804 13.5895 8.24982 13.9018 7.94176C14.0022 7.8426 14.5419 7.68541 15.1013 7.59257C15.9494 7.45147 16.1502 7.33256 16.3112 6.87586C16.4437 6.5 16.4261 6.15733 16.2555 5.78371C16.0227 5.27367 15.9433 5.24659 15.0105 5.35674C14.0905 5.46547 13.9879 5.43248 13.6704 4.92611C13.4812 4.62436 13.0514 4.14344 12.7155 3.85716C12.1353 3.3626 12.1159 3.29642 12.3282 2.53371C12.8133 0.790409 12.4208 0 11.0699 0C10.5523 0 10.2428 0.127256 10.0328 0.426764ZM11.6062 0.970399C11.6592 1.05632 11.6033 1.56025 11.4817 2.09025C11.3154 2.81591 11.1666 3.05413 10.8805 3.05413C10.3483 3.05413 10.2128 2.54918 10.4936 1.6136C10.6636 1.04797 10.847 0.814435 11.1215 0.814435C11.335 0.814435 11.5529 0.88468 11.6062 0.970399ZM9.36444 2.26067C9.51443 3.00913 9.39688 3.25774 8.89323 3.25774C8.37611 3.25774 7.87838 2.07477 8.28673 1.8168C8.85364 1.45865 9.23505 1.61584 9.36444 2.26067ZM11.0233 4.09233C11.8559 4.31813 12.962 5.18103 12.962 5.60474C12.962 5.73362 12.7282 5.94558 12.4422 6.07548C11.7813 6.37601 11.7376 6.37275 11.7376 6.02132C11.7376 5.60616 10.7495 4.88661 10.1795 4.88661C9.49504 4.88661 9.57075 5.4219 10.3091 5.80285C11.0707 6.19581 11.0907 6.46885 10.3642 6.55294C9.9442 6.6014 9.61667 6.90518 9.0322 7.78803C8.6059 8.43205 8.16776 8.95878 8.05878 8.95878C7.57615 8.95878 7.10087 8.14475 6.97761 7.10757C6.84986 6.03415 6.86619 5.98691 7.62309 5.23152C8.05001 4.80516 8.76018 4.32811 9.20118 4.17153C10.1873 3.82092 10.0458 3.82703 11.0233 4.09233ZM6.02582 5.75194C6.02704 6.45195 6.08112 7.34518 6.14602 7.73713C6.25519 8.3956 6.21418 8.46849 5.60604 8.69694L4.94811 8.94412L5.07586 7.88251C5.14627 7.29856 5.20463 6.29415 5.20545 5.65014C5.20708 4.61581 5.25483 4.47939 5.61543 4.47939C5.9797 4.47939 6.02378 4.61581 6.02582 5.75194ZM15.5041 6.52953C15.4397 6.63377 15.1397 6.72601 14.8376 6.73456C14.1801 6.75309 13.2218 7.10431 12.5886 7.55897C12.0015 7.98065 11.3294 9.2872 11.3294 10.0076V10.563L10.4238 10.255C9.04139 9.78502 8.96711 9.58182 9.72931 8.35834C10.2715 7.48791 10.464 7.32462 10.8362 7.41767C11.0839 7.47977 11.6407 7.37857 12.0733 7.19288C13.1534 6.72927 15.2746 6.13921 15.4652 6.24956C15.5513 6.29924 15.5688 6.42528 15.5041 6.52953ZM4.18693 7.00271C4.18693 7.35801 3.74266 7.53352 2.84372 7.53352C1.98376 7.53352 1.87316 6.99111 2.7074 6.86487C3.85919 6.69078 4.18693 6.72133 4.18693 7.00271ZM13.8522 9.21329C14.6081 9.87685 15.2713 11.3449 14.7197 11.1337C14.5738 11.0777 13.935 10.9674 13.3002 10.8882C12.3486 10.7697 12.1457 10.6758 12.1457 10.3541C12.1457 9.82819 12.6924 8.55156 12.9175 8.55156C13.0169 8.55156 13.4373 8.84924 13.8522 9.21329ZM16.5972 9.3151C16.5141 9.75 15.6239 9.9135 15.3905 9.53662C15.2115 9.2477 15.6094 8.9993 16.2931 8.97303C16.541 8.96346 16.6425 9.07769 16.5972 9.3151ZM7.5986 9.7948C8.34224 10.154 8.46468 10.2943 8.35367 10.6601C8.0949 11.512 7.26678 12.3556 5.91439 13.1446C4.4963 13.972 4.18284 14.33 4.55303 14.6993C4.70527 14.8512 4.98505 14.782 5.4985 14.4654L6.22764 14.0158V14.6042C6.22764 15.3902 6.67783 15.9871 7.1376 15.811C7.38534 15.7161 7.44718 15.5661 7.34004 15.3199C7.25515 15.1249 7.14454 14.6729 7.09393 14.3155C7.01638 13.7666 7.11801 13.5646 7.74921 13.0114C8.16021 12.6514 8.66937 12.0186 8.88078 11.6053L9.26505 10.8538L10.8013 11.2807C12.1741 11.6621 12.351 11.7682 12.4641 12.2776C12.571 12.7585 12.4443 13.0039 11.6539 13.8468C10.6501 14.9176 10.5332 15.213 11.037 15.4058C11.2445 15.4853 11.5594 15.2869 11.9353 14.8396C12.2537 14.4607 12.5596 14.1966 12.6155 14.2526C12.6712 14.3086 12.5916 14.9958 12.4388 15.7797C12.1082 17.4745 12.0623 20.0286 12.3529 20.5704C12.4767 20.8013 12.6855 20.9086 12.8718 20.8371C13.1161 20.7437 13.1545 20.5246 13.0494 19.8254C12.9757 19.3347 12.9812 18.4072 13.0616 17.7647L13.2079 16.5961L13.574 17.308C14.0987 18.3284 14.7409 18.8711 15.054 18.5587C15.2456 18.3675 15.2448 18.2362 15.0507 17.9628C14.0793 16.5943 13.6281 15.3128 13.5112 13.5909C13.3734 11.5656 13.4212 11.5173 14.9007 12.1886C15.8939 12.6396 16.1298 12.9096 16.541 14.0665C17.6885 17.2949 16.9649 22.2811 15.246 22.9917C14.6848 23.2236 14.493 23.1949 13.4649 22.7252C12.8312 22.4358 11.3472 21.9205 10.167 21.5803C8.95935 21.2323 7.6388 20.6993 7.14658 20.3613C5.13606 18.9812 3.37962 16.203 3.20738 14.1304C3.05106 12.2497 3.99693 10.5746 5.71746 9.68505C6.49926 9.28089 6.53947 9.28313 7.5986 9.7948ZM2.7525 10.5797C2.9176 10.684 3.00106 10.8206 2.93821 10.8835C2.76883 11.0523 1.53399 10.7699 1.53399 10.5622C1.53399 10.327 2.3713 10.339 2.7525 10.5797ZM5.98194 21.2732C5.92929 21.8087 5.83236 21.8965 5.22973 21.9539C4.5514 22.0184 4.54058 22.0072 4.66854 21.3685C4.74037 21.0102 4.79914 20.4366 4.79914 20.0937V19.4703L5.42074 20.0644C5.89174 20.5146 6.02765 20.8076 5.98194 21.2732Z" fill=""/>
</svg>
