<svg width="25" height="24" viewBox="0 0 25 24" fill="none" xmlns="http://www.w3.org/2000/svg">
<path d="M12.6665 21L12.5664 20.8499C11.8718 19.808 11.5245 19.287 11.0656 18.9098C10.6594 18.5759 10.1913 18.3254 9.68811 18.1726C9.11975 18 8.49361 18 7.24133 18H5.8665C4.7464 18 4.18635 18 3.75852 17.782C3.3822 17.5903 3.07624 17.2843 2.88449 16.908C2.6665 16.4802 2.6665 15.9201 2.6665 14.8V6.2C2.6665 5.07989 2.6665 4.51984 2.88449 4.09202C3.07624 3.71569 3.3822 3.40973 3.75852 3.21799C4.18635 3 4.7464 3 5.8665 3H6.2665C8.50671 3 9.62682 3 10.4825 3.43597C11.2351 3.81947 11.847 4.43139 12.2305 5.18404C12.6665 6.03968 12.6665 7.15979 12.6665 9.4M12.6665 21V9.4M12.6665 21L12.7666 20.8499C13.4612 19.808 13.8085 19.287 14.2674 18.9098C14.6736 18.5759 15.1417 18.3254 15.6449 18.1726C16.2133 18 16.8394 18 18.0917 18H19.4665C20.5866 18 21.1467 18 21.5745 17.782C21.9508 17.5903 22.2568 17.2843 22.4485 16.908C22.6665 16.4802 22.6665 15.9201 22.6665 14.8V6.2C22.6665 5.07989 22.6665 4.51984 22.4485 4.09202C22.2568 3.71569 21.9508 3.40973 21.5745 3.21799C21.1467 3 20.5866 3 19.4665 3H19.0665C16.8263 3 15.7062 3 14.8505 3.43597C14.0979 3.81947 13.486 4.43139 13.1025 5.18404C12.6665 6.03968 12.6665 7.15979 12.6665 9.4" stroke="" stroke-width="1.5" stroke-linecap="round" stroke-linejoin="round"/>
</svg>
