<svg width="45" height="49" viewBox="0 0 45 49" fill="none" xmlns="http://www.w3.org/2000/svg">
<path fill-rule="evenodd" clip-rule="evenodd" d="M11.1068 1.23466C10.279 2.14927 10.2508 3.45632 11.0445 4.11506C11.8282 4.76537 11.8764 14.1336 11.1128 17.3771C10.7722 18.8231 8.82047 22.7105 5.49542 28.5653C-0.282252 38.7385 -0.585514 39.7664 1.63614 41.6358C2.84558 42.6536 3.00103 42.6757 8.89961 42.6757C13.543 42.6757 14.889 42.5605 14.7604 42.1736C14.6391 41.8081 12.9629 41.6434 8.60156 41.5687C3.06771 41.4739 2.55557 41.4012 1.90647 40.6204C1.52006 40.1556 1.20354 39.435 1.20354 39.0197C1.20354 38.604 3.46858 34.241 6.23651 29.3233C9.00484 24.406 11.5354 19.4915 11.8599 18.4018C12.5544 16.0721 12.7075 4.32112 12.0487 3.91423C11.4133 3.52139 11.5816 1.81588 12.2825 1.54716C12.632 1.41301 14.6054 1.30335 16.668 1.30335C18.7306 1.30335 20.704 1.41301 21.0534 1.54716C21.7825 1.82673 21.9018 3.33983 21.2467 3.99496C20.9466 4.29501 20.8542 6.67533 20.9591 11.4058L21.1141 18.3745L22.6115 21.2866C23.435 22.8881 24.2873 24.1987 24.5058 24.1987C25.1525 24.1987 24.9698 23.5047 23.7358 21.2806C22.1484 18.4183 21.6889 15.8351 21.6889 9.76782C21.6889 5.67757 21.813 4.51192 22.2914 4.11506C23.065 3.47319 23.057 2.51801 22.2685 1.39292C21.6801 0.552619 21.3527 0.5 16.7073 0.5C12.4359 0.5 11.682 0.598813 11.1068 1.23466ZM13.8848 18.403C13.1381 19.1501 13.0533 21.0259 13.7358 21.7084C14.0009 21.9735 14.7781 22.1904 15.463 22.1904C16.1478 22.1904 16.925 21.9735 17.1902 21.7084C17.4553 21.4433 17.6722 20.666 17.6722 19.9812C17.6722 19.2963 17.4553 18.5191 17.1902 18.254C16.5077 17.5715 14.6319 17.6563 13.8848 18.403ZM16.668 19.9812C16.668 21.0512 16.5334 21.1862 15.4686 21.1862C14.6331 21.1862 14.2266 20.9669 14.1298 20.464C13.9366 19.4594 14.8263 18.5131 15.8293 18.6565C16.4667 18.7472 16.668 19.0654 16.668 19.9812ZM30.0923 20.5564C29.1158 21.2039 25.306 24.7784 21.6266 28.4991C15.3127 34.8841 14.9211 35.3705 14.6528 37.1575C14.2423 39.8949 15.6039 42.5424 18.0586 43.7803C19.0443 44.2776 20.3112 44.6841 20.8739 44.6841C21.476 44.6841 22.1127 45.0287 22.4199 45.5208C22.7071 45.9811 23.9708 46.8395 25.2276 47.4287C27.3501 48.4237 27.9 48.5 32.9358 48.5C37.9928 48.5 38.515 48.4265 40.682 47.4115C43.5998 46.0438 44.3465 44.5825 44.1003 40.7188C43.9496 38.3501 43.8183 38.0328 42.553 36.9756C41.0616 35.7296 37.9812 34.6423 35.9423 34.6423C35.2462 34.6423 34.5553 34.521 34.4071 34.3731C34.2589 34.2249 35.3795 32.8231 36.8975 31.2574C39.8204 28.2432 40.4499 26.8422 39.9879 24.3799C39.6879 22.7816 38.131 20.7982 36.5231 19.9667C34.6268 18.9862 32.1127 19.2168 30.0923 20.5564ZM35.9523 20.7604C38.5391 21.8413 39.7598 25.5363 38.3885 28.1351C37.4775 29.8607 32.8466 34.1273 31.6608 34.333C30.7442 34.492 30.0959 34.0265 27.2513 31.167L23.9166 27.8142L27.1207 24.5582C31.3977 20.2117 32.9956 19.5249 35.9523 20.7604ZM6.24615 30.873C3.91443 34.9857 2.00689 38.655 2.00689 39.0269C2.00689 40.4597 2.83072 40.6674 8.514 40.6674C11.9415 40.6674 14.0571 40.5139 14.0571 40.2657C14.0571 40.0179 11.9961 39.864 8.67748 39.864C4.65753 39.864 3.24766 39.7331 3.09904 39.3463C2.98978 39.0615 4.70654 35.6272 6.91373 31.7145L10.9273 24.6004H16.6897C21.5965 24.6004 22.5067 24.6976 22.8184 25.2543C23.3623 26.2264 23.833 25.2029 23.3 24.2072C22.8931 23.4464 22.4758 23.3954 16.6756 23.3954H10.4854L6.24615 30.873ZM15.6638 28.6172C14.7203 29.5607 14.6275 30.9597 15.436 32.0551C15.8972 32.6801 16.1125 32.7351 16.5206 32.3326C16.8672 31.9904 16.8845 31.8305 16.5744 31.8305C15.8823 31.8305 15.5642 30.3572 16.0574 29.4358C16.5318 28.5493 17.683 28.3798 18.8792 29.02C19.352 29.2727 19.7199 29.2803 19.8681 29.0401C20.1814 28.5332 18.7908 27.8138 17.4978 27.8138C16.9311 27.8138 16.1056 28.1753 15.6638 28.6172ZM25.5277 30.7296C29.4115 34.862 29.3127 34.4707 26.666 35.2404C25.1851 35.6709 23.8772 36.3903 23.0225 37.2451C21.7973 38.4702 21.6889 38.7827 21.6889 41.0819V43.5847L19.9822 43.3558C17.45 43.0163 15.663 40.9489 15.6666 38.3638C15.6682 37.2077 15.9466 36.0433 16.3695 35.4231C17.1014 34.3498 22.9301 28.6521 23.3185 28.63C23.4414 28.6228 24.4355 29.5679 25.5277 30.7296ZM9.23701 33.716C8.3465 34.0341 7.63032 35.0801 7.63032 36.0626C7.63032 38.0914 10.6581 39.0309 11.825 37.3644C12.683 36.1397 12.6135 35.5721 11.4643 34.4233C10.4493 33.4079 10.2637 33.3489 9.23701 33.716ZM11.1972 35.3556C12.0238 36.9005 9.97448 38.224 8.85141 36.8707C8.5851 36.5498 8.48468 35.9172 8.62848 35.4649C8.95664 34.4302 10.663 34.3575 11.1972 35.3556ZM17.0925 35.9369C16.2285 37.17 16.3004 39.5696 17.2359 40.7232C18.3092 42.0471 18.6478 41.4575 17.816 39.713C17.1632 38.3441 17.162 38.1726 17.7987 36.8378C18.5828 35.1934 18.6077 35.0439 18.0967 35.0439C17.8883 35.0439 17.4364 35.4456 17.0925 35.9369ZM34.7433 36.8772C27.4654 43.2244 27.3256 43.2855 24.4769 41.3659C23.433 40.6625 23.0948 40.1492 23.0948 39.2679C23.0948 37.0872 27.2059 35.5079 32.9358 35.4878L36.35 35.4757L34.7433 36.8772ZM40.4904 36.888C45.1342 39.2025 42.8037 42.1973 35.6101 43.1601C33.5013 43.4421 31.7504 43.4686 30.7547 43.2329L29.1974 42.8649L33.3639 39.3559C35.6555 37.4263 37.7265 35.8473 37.9659 35.8473C38.2053 35.8473 39.3412 36.3156 40.4904 36.888ZM28.0349 43.8313C32.4381 44.7644 39.1665 44.0844 41.6581 42.4544C42.8957 41.6446 42.9776 41.6936 42.9776 43.2425C42.9776 45.2364 41.3179 46.4707 37.4931 47.3215C32.4176 48.451 26.1117 47.5669 23.8089 45.4039C23.2104 44.8412 22.8939 44.0796 22.8939 43.1999V41.8559L24.4002 42.6179C25.2288 43.0372 26.8645 43.5831 28.0349 43.8313Z" fill="#D5DCE5"/>
</svg>
