<svg width="25" height="24" viewBox="0 0 25 24" fill="none" xmlns="http://www.w3.org/2000/svg">
<path d="M12.7846 22C18.4066 22 22.964 17.5228 22.964 12C22.964 6.47715 18.4066 2 12.7846 2C7.1627 2 2.60522 6.47715 2.60522 12C2.60522 17.5228 7.1627 22 12.7846 22Z" stroke="" stroke-width="1.5" stroke-linecap="round" stroke-linejoin="round"/>
<path d="M10.2398 8.96533C10.2398 8.48805 10.2398 8.24941 10.3413 8.11618C10.4298 8.00007 10.5652 7.92744 10.7125 7.9171C10.8815 7.90525 11.0858 8.03429 11.4945 8.29239L16.2998 11.3271C16.6544 11.551 16.8317 11.663 16.893 11.8054C16.9465 11.9298 16.9465 12.0702 16.893 12.1946C16.8317 12.337 16.6544 12.449 16.2998 12.6729L11.4945 15.7076C11.0858 15.9657 10.8815 16.0948 10.7125 16.0829C10.5652 16.0726 10.4298 15.9999 10.3413 15.8838C10.2398 15.7506 10.2398 15.512 10.2398 15.0347V8.96533Z" stroke="" stroke-width="1.5" stroke-linecap="round" stroke-linejoin="round"/>
</svg>
