<svg width="16" height="24" viewBox="0 0 16 24" fill="none" xmlns="http://www.w3.org/2000/svg">
<path fill-rule="evenodd" clip-rule="evenodd" d="M6.83126 0.0668499C6.72058 0.177528 6.72591 0.373824 6.84202 0.465168C6.91224 0.520398 7.01439 0.539805 7.32537 0.556914C8.72417 0.633958 10.5653 1.62481 11.7457 2.93577C12.3137 3.56661 12.8408 4.45448 13.1125 5.23824C13.4026 6.07467 13.503 6.78084 13.4983 7.95168C13.4967 8.36299 13.5141 8.81442 13.5369 8.95486C13.7459 10.2411 14.3428 11.3027 15.0458 11.6385C15.3561 11.7867 15.4517 11.9117 15.4481 12.1644C15.442 12.5839 15.2489 12.7422 14.5563 12.8954C14.3349 12.9443 14.1089 13.0109 14.0541 13.0433C13.9 13.1343 13.7847 13.3306 13.765 13.5356C13.7499 13.6928 13.7654 13.7527 13.875 13.9632C13.9451 14.0978 14.0136 14.2836 14.0272 14.3761C14.0506 14.5362 14.0456 14.5498 13.9214 14.6589C13.7464 14.8125 13.5187 14.9235 13.0881 15.0653C12.7874 15.1643 12.7175 15.202 12.6577 15.2976C12.5639 15.4473 12.5907 15.631 12.7254 15.7623C12.7812 15.8166 12.9828 15.9467 13.1734 16.0513C13.7882 16.3889 13.826 16.4452 13.5898 16.6722C13.2571 16.9921 13.2039 17.2568 13.3502 17.8662C13.4137 18.1306 13.4237 18.2332 13.3958 18.3341C13.3127 18.6352 13.0388 18.837 12.5286 18.9733C12.168 19.0697 11.4261 19.076 10.6567 18.9893C10.0994 18.9265 9.45777 18.909 9.21457 18.95C7.68119 19.2088 6.75472 20.86 6.7533 23.3368C6.75305 23.8083 6.7598 23.8635 6.82597 23.9296C6.91596 24.0196 7.08556 24.024 7.1819 23.9388C7.24658 23.8816 7.25825 23.7972 7.29433 23.1271C7.35383 22.0222 7.48216 21.4127 7.79136 20.7667C8.05313 20.2198 8.30389 19.9296 8.7229 19.6887C9.13041 19.4544 9.66195 19.4109 10.651 19.531C11.2042 19.5982 12.1084 19.6094 12.4073 19.5528C13.1346 19.415 13.6479 19.1093 13.8478 18.6949C13.9551 18.4723 13.9627 18.0932 13.8678 17.6891C13.8242 17.5034 13.7977 17.3152 13.8088 17.2709C13.8199 17.2266 13.8954 17.1304 13.9765 17.0571C14.1953 16.8594 14.2675 16.7202 14.2676 16.4955C14.2679 16.1475 14.0865 15.9169 13.6236 15.6768L13.3991 15.5604L13.7883 15.3714C14.2291 15.1574 14.4905 14.921 14.5558 14.6773C14.6099 14.4752 14.5491 14.1125 14.4155 13.8414C14.2948 13.596 14.2844 13.5496 14.3422 13.5139C14.3631 13.501 14.5498 13.4521 14.7571 13.4052C15.5995 13.2149 15.9408 12.8815 15.9747 12.2163C15.9878 11.9596 15.9777 11.8732 15.9188 11.7402C15.8075 11.4886 15.6393 11.3249 15.3404 11.1772C15.0021 11.01 14.7838 10.7761 14.5515 10.3319C14.3409 9.92904 14.2176 9.58326 14.1156 9.10932C14.0467 8.78925 14.036 8.6345 14.0408 8.02464C14.0504 6.79999 13.9527 6.06322 13.6648 5.18819C13.0221 3.23505 11.5862 1.64196 9.58016 0.656393C8.77433 0.260483 8.04996 0.054447 7.31461 0.011985C6.93263 -0.010085 6.90506 -0.00694785 6.83126 0.0668499ZM11.758 5.22303C11.696 5.285 11.7037 5.45536 11.7715 5.52321C11.8732 5.62488 11.9969 5.59161 12.0761 5.44128C12.1683 5.26629 11.8993 5.08174 11.758 5.22303ZM10.3375 5.59982C10.1844 5.70711 10.1974 5.99161 10.3613 6.11742C10.5207 6.23978 10.8096 6.12862 10.8606 5.92536C10.8885 5.81446 10.8159 5.62689 10.7267 5.57914C10.6279 5.52628 10.4273 5.53697 10.3375 5.59982ZM12.3075 6.46515C12.1134 6.67461 12.2523 7.00322 12.535 7.00322C12.6254 7.00322 12.6937 6.97549 12.7555 6.91366C12.9566 6.71262 12.8133 6.38307 12.5248 6.38307C12.4252 6.38307 12.3611 6.40725 12.3075 6.46515ZM11.2243 6.51334C11.1421 6.59563 11.1535 6.73429 11.2481 6.8005C11.3552 6.87558 11.4075 6.87215 11.4953 6.78434C11.628 6.65163 11.552 6.45603 11.3676 6.45603C11.3204 6.45603 11.2559 6.48182 11.2243 6.51334ZM10.0443 7.06002C9.89374 7.16544 9.97461 7.40449 10.1608 7.40449C10.2554 7.40449 10.3645 7.30045 10.3645 7.21009C10.3645 7.13826 10.2388 7.00322 10.172 7.00322C10.1463 7.00322 10.0889 7.02879 10.0443 7.06002ZM6.47099 8.38951C5.329 8.54943 4.3592 9.2618 3.9047 10.2745C3.68426 10.7658 3.6353 11.0132 3.6353 11.6361C3.6353 12.1131 3.64811 12.246 3.71716 12.4861C3.8235 12.8559 4.01173 13.2493 4.21335 13.5232L4.37452 13.7422L3.96073 14.1548L3.54695 14.5674L3.39107 14.4971C3.18223 14.4029 2.7861 14.4024 2.53964 14.4961C2.38486 14.5549 2.19532 14.7262 1.28811 15.6269C0.0580996 16.8483 -0.00143464 16.93 2.45384e-05 17.3948C0.00148371 17.8511 0.212845 18.1938 0.614848 18.3917C0.822671 18.494 0.892492 18.5102 1.11436 18.5069C1.56999 18.5002 1.60752 18.4729 2.80689 17.2791C4.04704 16.0447 4.07057 16.0123 4.07108 15.5394C4.0713 15.3079 4.05387 15.1939 4.00221 15.0896L3.93297 14.9498L4.33009 14.5515C4.54849 14.3324 4.73869 14.1532 4.75281 14.1532C4.76693 14.1532 4.91255 14.2429 5.07646 14.3526C5.40969 14.5757 5.79101 14.7346 6.21892 14.8288C6.60801 14.9144 7.3821 14.8881 7.7679 14.7762C8.78002 14.4825 9.63408 13.6673 9.96673 12.6773C10.5734 10.872 9.5049 8.91765 7.66499 8.46732C7.30016 8.37802 6.79029 8.34478 6.47099 8.38951ZM7.34635 8.95209C8.46933 9.16695 9.31448 9.99285 9.54076 11.0965C9.78558 12.2906 9.18615 13.5179 8.09498 14.0569C7.65507 14.2742 7.34533 14.3469 6.86245 14.346C5.81374 14.3441 4.90008 13.7702 4.43573 12.8217C4.22981 12.401 4.16418 12.1145 4.16352 11.6328C4.16268 11.0445 4.30546 10.5697 4.62575 10.0956C5.22106 9.21441 6.31478 8.7547 7.34635 8.95209ZM6.71631 10.8968C6.57364 11.0782 6.70387 11.3443 6.93541 11.3443C7.16694 11.3443 7.29717 11.0782 7.1545 10.8968C7.09325 10.819 7.04517 10.7971 6.93541 10.7971C6.82564 10.7971 6.77756 10.819 6.71631 10.8968ZM13.176 11.258C13.1345 11.3108 13.1004 11.3907 13.1004 11.4355C13.1004 11.4802 13.1345 11.5601 13.176 11.6129C13.332 11.8112 13.6476 11.6914 13.6476 11.434C13.6476 11.174 13.3341 11.057 13.176 11.258ZM7.64935 11.6934C7.52524 11.8175 7.61721 12.0374 7.79322 12.0374C7.8792 12.0374 7.99331 11.9183 7.99331 11.8286C7.99331 11.7579 7.85648 11.6361 7.77702 11.6361C7.73836 11.6361 7.6809 11.6619 7.64935 11.6934ZM14.106 12.0493C14.0298 12.1051 14.0185 12.2669 14.0853 12.3473C14.1398 12.413 14.3087 12.4196 14.3699 12.3584C14.4353 12.293 14.4227 12.1298 14.347 12.0613C14.2663 11.9883 14.1944 11.9847 14.106 12.0493ZM6.13005 12.1805C5.99413 12.3164 5.98993 12.4662 6.11787 12.6182C6.19648 12.7117 6.23869 12.7305 6.36998 12.7305C6.50127 12.7305 6.54347 12.7117 6.62209 12.6182C6.67527 12.555 6.71653 12.4606 6.71653 12.4022C6.71653 12.3437 6.67527 12.2493 6.62209 12.1861C6.49072 12.03 6.28294 12.0276 6.13005 12.1805ZM12.623 12.4854C12.4799 12.5953 12.4454 12.7761 12.5346 12.9486C12.6288 13.1308 12.9052 13.1612 13.06 13.0063C13.1951 12.8713 13.1913 12.6458 13.052 12.526C12.9398 12.4295 12.7226 12.409 12.623 12.4854ZM11.9183 14.5656C11.7815 14.6656 11.927 14.9137 12.0699 14.8241C12.149 14.7745 12.1722 14.641 12.1138 14.5707C12.0596 14.5053 12.0028 14.5039 11.9183 14.5656ZM9.14806 14.8036C9.0148 14.9508 9.10801 15.1867 9.29945 15.1867C9.45088 15.1867 9.52544 15.117 9.52544 14.9752C9.52544 14.7648 9.28289 14.6545 9.14806 14.8036ZM3.25384 15.0387C3.51736 15.2163 3.62038 15.5416 3.49099 15.7874C3.46246 15.8416 2.97411 16.3482 2.40573 16.9132C1.40554 17.9074 1.3668 17.9413 1.20041 17.9659C0.784988 18.0275 0.446386 17.6493 0.553526 17.2434C0.588364 17.1114 0.73388 16.9492 1.58509 16.093C2.13016 15.5448 2.63358 15.0654 2.7038 15.0276C2.88171 14.9319 3.10205 14.9363 3.25384 15.0387ZM10.6956 15.342C10.3721 15.6142 10.7779 16.1242 11.1101 15.8629C11.2467 15.7555 11.2882 15.6308 11.238 15.4788C11.1625 15.25 10.8874 15.1806 10.6956 15.342ZM9.72093 16.3255C9.64903 16.3974 9.63338 16.4404 9.65206 16.5148C9.70244 16.7156 9.90993 16.7677 10.0335 16.6106C10.1315 16.4861 10.1288 16.4313 10.0196 16.3221C9.90585 16.2083 9.83734 16.2091 9.72093 16.3255ZM11.3129 16.7797C11.2194 16.8732 11.2199 16.9998 11.3144 17.1011C11.4075 17.2011 11.5307 17.2032 11.6343 17.1066C11.7282 17.0192 11.7367 16.9011 11.6574 16.7878C11.5851 16.6846 11.4121 16.6805 11.3129 16.7797ZM8.56443 17.3317C8.52744 17.3532 8.47363 17.4272 8.44481 17.4961C8.39856 17.6069 8.39925 17.6357 8.4508 17.7444C8.59204 18.042 9.02203 17.9791 9.07419 17.6532C9.10414 17.4659 8.95388 17.2899 8.76525 17.2915C8.69178 17.2921 8.60142 17.3102 8.56443 17.3317ZM12.2979 17.4608C11.9236 17.6077 12.0239 18.1294 12.4265 18.1294C12.5707 18.1294 12.7356 17.9471 12.7356 17.7877C12.7356 17.5677 12.491 17.3851 12.2979 17.4608ZM10.1579 17.9116C10.0003 17.9729 10.0108 18.1855 10.1735 18.2263C10.299 18.2578 10.3827 18.1974 10.3827 18.0752C10.3827 17.9497 10.2704 17.868 10.1579 17.9116Z" fill=""/>
</svg>
