<svg width="25" height="24" viewBox="0 0 25 24" fill="none" xmlns="http://www.w3.org/2000/svg">
<path d="M20.8335 20V13M12.8335 20V10M4.8335 20L4.8335 16M14.2402 5.0275L19.4086 6.96567M11.6323 5.40092L6.03372 9.59983M21.8942 6.43934C22.4799 7.02513 22.4799 7.97487 21.8942 8.56066C21.3084 9.14645 20.3586 9.14645 19.7728 8.56066C19.1871 7.97487 19.1871 7.02513 19.7728 6.43934C20.3586 5.85355 21.3084 5.85355 21.8942 6.43934ZM5.89416 9.43934C6.47994 10.0251 6.47994 10.9749 5.89416 11.5607C5.30837 12.1464 4.35862 12.1464 3.77284 11.5607C3.18705 10.9749 3.18705 10.0251 3.77284 9.43934C4.35862 8.85355 5.30837 8.85355 5.89416 9.43934ZM13.8942 3.43934C14.4799 4.02513 14.4799 4.97487 13.8942 5.56066C13.3084 6.14645 12.3586 6.14645 11.7728 5.56066C11.187 4.97487 11.187 4.02513 11.7728 3.43934C12.3586 2.85355 13.3084 2.85355 13.8942 3.43934Z" stroke="#5C6970" stroke-width="1.5" stroke-linecap="round" stroke-linejoin="round"/>
</svg>
